<svg xmlns="http://www.w3.org/2000/svg" version="1.1" xmlnsXlink="http://www.w3.org/1999/xlink" xmlnsSvgjs="http://svgjs.dev/svgjs" width="2000" height="1247" viewBox="0 0 2000 1247"><g transform="matrix(1,0,0,1,-1.2121212121212466,0.504858299595071)"><svg viewBox="0 0 396 247" data-background-color="#aaaaaa" preserveAspectRatio="xMidYMid meet" height="1247" width="2000" xmlns="http://www.w3.org/2000/svg" xmlns:xlink="http://www.w3.org/1999/xlink"><g id="tight-bounds" transform="matrix(1,0,0,1,0.2400000000000091,-0.09999999999999432)"><svg viewBox="0 0 395.52 247.2" height="247.2" width="395.52"><g><svg></svg></g><g><svg viewBox="0 0 395.52 247.2" height="247.2" width="395.52"><g transform="matrix(1,0,0,1,75.54432,75.26055430872483)"><svg viewBox="0 0 244.43135999999998 96.67889138255033" height="96.67889138255033" width="244.43135999999998"><g><svg viewBox="0 0 244.43135999999998 96.67889138255033" height="96.67889138255033" width="244.43135999999998"><g><svg viewBox="0 0 244.43135999999998 96.67889138255033" height="96.67889138255033" width="244.43135999999998"><g><svg viewBox="0 0 244.43135999999998 96.67889138255033" height="96.67889138255033" width="244.43135999999998"><g><svg viewBox="0 0 244.43135999999998 96.67889138255033" height="96.67889138255033" width="244.43135999999998"><g transform="matrix(1,0,0,1,0,0)"><svg width="244.43135999999998" viewBox="-0.05 -43.85 111.75 44.2" height="96.67889138255033" data-palette-color="#64ffda"><path d="M11.6 0.25Q9.75 0.25 8.95-0.58 8.15-1.4 8.15-3.7L8.15-3.7Q8.15-5.25 8.47-7.68 8.8-10.1 9.55-14.35L9.55-14.35Q10.85-22.2 11.6-27.95L11.6-27.95Q12.05-31.55 12.05-33.95L12.05-33.95Q12.05-36.2 10.4-36.2L10.4-36.2Q9.1-36.2 7.28-34.88 5.45-33.55 3.25-30.65L3.25-30.65Q2.55-29.7 1.7-29.7L1.7-29.7Q1-29.7 0.48-30.38-0.05-31.05-0.05-31.9L-0.05-31.9Q-0.05-32.7 0.28-33.52 0.6-34.35 1.35-35.4L1.35-35.4Q3.75-38.75 6.7-40.58 9.65-42.4 12.6-42.4L12.6-42.4Q15.35-42.4 16.82-40.65 18.3-38.9 18.3-35.55L18.3-35.55Q18.3-34.2 18.05-32.38 17.8-30.55 17.6-29.4 17.4-28.25 17.3-27.8L17.3-27.8Q20.15-35.95 23.7-39.18 27.25-42.4 31.5-42.4L31.5-42.4Q34.75-42.4 36.63-40.1 38.5-37.8 38.5-33.6L38.5-33.6Q38.5-31.95 38.05-29.5L38.05-29.5Q40.55-36.4 43.9-39.4 47.25-42.4 51.6-42.4L51.6-42.4Q55.1-42.4 56.98-40.15 58.85-37.9 58.85-33.85L58.85-33.85Q58.85-31.65 58.2-28.5L58.2-28.5 55.15-14.2Q54.65-11.7 54.65-9.9L54.65-9.9Q54.65-7.8 55.63-6.75 56.6-5.7 58.35-5.7L58.35-5.7Q60-5.7 61.58-6.8 63.15-7.9 65.3-10.45L65.3-10.45Q65.9-11.15 66.65-11.15L66.65-11.15Q67.3-11.15 67.67-10.55 68.05-9.95 68.05-8.9L68.05-8.9Q68.05-6.95 67.1-5.8L67.1-5.8Q64.5-2.65 61.95-1.2 59.4 0.25 56.6 0.25L56.6 0.25Q52.35 0.25 49.95-2.27 47.55-4.8 47.55-9.05L47.55-9.05Q47.55-12 48.75-17.6L48.75-17.6 50.75-26.75Q50.85-27.2 51.1-28.35 51.35-29.5 51.5-30.53 51.65-31.55 51.65-32.55L51.65-32.55Q51.65-34.3 50.98-35.18 50.3-36.05 49.05-36.05L49.05-36.05Q46.7-36.05 44.13-33.02 41.55-30 39.23-23 36.9-16 35.45-4.8L35.45-4.8Q35.1-1.8 34.23-0.78 33.35 0.25 31.4 0.25L31.4 0.25Q29.7 0.25 28.93-0.55 28.15-1.35 28.15-3.55L28.15-3.55Q28.15-5.6 28.7-8.93 29.25-12.25 30.1-16.75L30.1-16.75Q32.4-28.85 32.4-32.35L32.4-32.35Q32.4-34.25 31.68-35.15 30.95-36.05 29.5-36.05L29.5-36.05Q27.05-36.05 24.45-33.27 21.85-30.5 19.38-23.43 16.9-16.35 15.25-4.3L15.25-4.3Q14.9-1.75 14.23-0.75 13.55 0.25 11.6 0.25L11.6 0.25ZM110.3-11.15Q110.95-11.15 111.32-10.55 111.7-9.95 111.7-8.9L111.7-8.9Q111.7-6.95 110.75-5.8L110.75-5.8Q105.8 0.25 100.2 0.25L100.2 0.25Q95.35 0.25 92.45-3.5 89.55-7.25 89.55-14.25L89.55-14.25Q89.55-15.95 89.7-17.65L89.7-17.65Q86.4-17.05 82.5-16.75L82.5-16.75Q79.9-16.55 78.95-16.5L78.95-16.5Q77.95-11.4 76.15-4L76.15-4Q75.1 0.35 72.15 0.35L72.15 0.35Q68.95 0.35 68.95-2.55L68.95-2.55Q68.95-3.2 69.2-4.35L69.2-4.35Q70.9-11.2 71.9-15.95L71.9-15.95 69.5-15.85Q67.85-15.85 67.1-16.43 66.35-17 66.35-18.3L66.35-18.3Q66.35-19.95 67.3-20.73 68.25-21.5 70.45-21.6L70.45-21.6 73.1-21.7Q74.4-28.75 74.4-32.45L74.4-32.45Q74.4-34.8 73.7-35.65 73-36.5 71.85-36.5L71.85-36.5Q68.35-36.5 63.95-30.65L63.95-30.65Q63.3-29.8 62.5-29.8L62.5-29.8Q61.8-29.8 61.3-30.45 60.8-31.1 60.8-32.1L60.8-32.1Q60.8-33.65 62.05-35.4L62.05-35.4Q64.25-38.45 67.6-40.43 70.95-42.4 74.4-42.4L74.4-42.4Q77.65-42.4 79.42-40.18 81.2-37.95 81.2-33.25L81.2-33.25Q81.2-29.1 80-22L80-22 84.9-22.25Q88.05-22.4 90.3-22.75L90.3-22.75Q91.2-28.25 93.05-33.05 94.9-37.85 97.65-40.85 100.4-43.85 103.8-43.85L103.8-43.85Q106.3-43.85 107.75-41.88 109.2-39.9 109.2-36.7L109.2-36.7Q109.2-24.3 96.55-19.5L96.55-19.5Q96.4-17.5 96.4-15.35L96.4-15.35Q96.4-10.1 97.7-7.9 99-5.7 101.35-5.7L101.35-5.7Q103.4-5.7 105.1-6.78 106.8-7.85 108.95-10.45L108.95-10.45Q109.55-11.15 110.3-11.15L110.3-11.15ZM103.55-39.5Q102.45-39.5 101.22-37.5 100-35.5 98.9-32.05 97.8-28.6 97.15-24.5L97.15-24.5Q101.15-26.15 103.05-29.2 104.95-32.25 104.95-37.05L104.95-37.05Q104.95-38.2 104.55-38.85 104.15-39.5 103.55-39.5L103.55-39.5Z" opacity="1" transform="matrix(1,0,0,1,0,0)" fill="#64ffda" class="undefined-text-0" data-fill-palette-color="primary" id="text-0"></path></svg></g></svg></g></svg></g></svg></g></svg></g></svg></g><path d="M224.134 69.261L224.134 17.153 11.241 17.153 11.241 230.047 224.134 230.047 224.134 177.939 215.416 177.939 215.416 221.328 19.96 221.328 19.96 25.872 215.416 25.872 215.416 69.261Z" fill="#64ffda" stroke="transparent" data-fill-palette-color="primary"></path></svg></g><defs></defs></svg><rect width="395.52" height="247.2" fill="none" stroke="none" visibility="hidden"></rect></g></svg></g></svg>